<?xml version="1.0" encoding="UTF-8"?>
<svg width="298px" height="298px" viewBox="0 0 298 298" version="1.1" xmlns="http://www.w3.org/2000/svg" xmlns:xlink="http://www.w3.org/1999/xlink">
    <!-- Generator: Sketch 52.6 (67491) - http://www.bohemiancoding.com/sketch -->
    <title>logo--low-detail</title>
    <desc>Created with Sketch.</desc>
    <g id="logo--low-detail" stroke="none" stroke-width="1" fill="none" fill-rule="evenodd">
        <g id="capsule">
            <path d="M225.277614,275.170643 C238.679625,242.474531 266.741957,149.039946 282.900268,94.0337802 C261.68874,87.0032172 245.85,75.9580429 234.085791,64.0340483 C222.12185,52.2298928 211.016756,36.3312332 203.926273,15.0597855 C148.840214,31.1581769 55.2658177,59.0806971 22.5297587,72.4427614 C22.5297587,72.4427614 -12.7828418,86.14437 5.11313673,119.998928 C5.11313673,119.998928 29.480429,170.85067 79.4733244,218.626542 C127.069437,268.439678 177.761394,292.647185 177.761394,292.647185 C211.516086,310.443298 225.277614,275.170643 225.277614,275.170643 Z" id="capsule_body_1_" fill="#E2E2E2"></path>
            <path d="M283.299732,92.65563 C283.339678,92.4958445 283.379625,92.3560322 283.439544,92.1962466 C283.559383,91.7768097 283.679223,91.3573727 283.799062,90.9379357 C283.858981,90.7581769 283.918901,90.558445 283.958847,90.3786863 C284.078686,89.9991957 284.178552,89.6197051 284.298391,89.2402145 C284.378284,89.0005362 284.438204,88.7608579 284.518097,88.5211796 C284.637936,88.1017426 284.777748,87.6623324 284.897587,87.2428954 C284.957507,87.0631367 284.997453,86.883378 285.057373,86.6836461 C285.157239,86.3441019 285.257105,86.0245308 285.356971,85.6849866 C285.41689,85.5052279 285.456836,85.3454424 285.516756,85.1656836 C285.636595,84.7262735 285.776408,84.3068365 285.896247,83.8873995 C285.956166,83.6676944 286.016086,83.4479893 286.095979,83.2282842 C286.155898,83.0085791 286.215818,82.788874 286.29571,82.5691689 C286.41555,82.1497319 286.535389,81.7502681 286.655228,81.3308311 C286.715147,81.1510724 286.755094,80.9713137 286.815013,80.791555 C286.894906,80.5119303 286.974799,80.2323056 287.054692,79.952681 C287.074665,79.8727882 287.094638,79.7928954 287.114611,79.7130027 C287.254424,79.2136729 287.394236,78.7343164 287.534048,78.2549598 C287.593968,78.0552279 287.653887,77.855496 287.713807,77.6557641 C287.773727,77.436059 287.833646,77.2363271 287.893566,77.016622 C287.993432,76.6571046 288.093298,76.3175603 288.193164,75.9780161 C288.253083,75.758311 288.313003,75.5386059 288.392895,75.3189008 C288.452815,75.1191689 288.512735,74.919437 288.572654,74.7197051 C288.652547,74.4400804 288.73244,74.1604558 288.812332,73.8808311 C288.912198,73.5612601 288.992091,73.241689 289.091957,72.9420912 C289.11193,72.8422252 289.151877,72.7623324 289.17185,72.6624665 C289.271716,72.3029491 289.391555,71.9434316 289.491421,71.5839142 C289.55134,71.3642091 289.61126,71.1644772 289.67118,70.9647453 C289.711126,70.8049598 289.751072,70.6651475 289.810992,70.5253351 C289.890885,70.2257373 289.990751,69.9261394 290.070643,69.6265416 C290.150536,69.3668901 290.230429,69.1072386 290.290349,68.8475871 C290.310322,68.7477212 290.350268,68.6478552 290.370241,68.5479893 C290.430161,68.3282842 290.510054,68.0886059 290.569973,67.8689008 C290.649866,67.5892761 290.729759,67.3296247 290.809651,67.0699732 C290.869571,66.8702413 290.929491,66.6705094 290.98941,66.4907507 C291.029357,66.3309651 291.089276,66.1711796 291.129223,66.0113941 C291.209115,65.7517426 291.289008,65.4920912 291.348928,65.2324397 C291.408847,65.0327078 291.468767,64.8529491 291.508713,64.6532172 C291.528686,64.5733244 291.54866,64.4934316 291.568633,64.4335121 C291.668499,64.0739946 291.768365,63.7144772 291.868231,63.374933 C291.908177,63.275067 291.92815,63.1552279 291.968097,63.0553619 C292.008043,62.9155496 292.047989,62.7957105 292.087936,62.6558981 C292.147855,62.4761394 292.187802,62.2963807 292.247721,62.1365952 C292.327614,61.8769437 292.407507,61.6172922 292.467426,61.3576408 C292.487399,61.277748 292.527346,61.177882 292.547319,61.0979893 C292.587265,60.9781501 292.627212,60.858311 292.647185,60.7184987 C292.727078,60.4588472 292.786997,60.2191689 292.86689,59.9595174 C292.906836,59.8396783 292.92681,59.7198391 292.966756,59.6 C293.106568,59.1406166 293.226408,58.7012064 293.346247,58.2817694 C293.36622,58.2018767 293.386193,58.1219839 293.426139,58.0420912 C293.486059,57.8223861 293.545979,57.6226542 293.605898,57.4229223 C293.645845,57.3030831 293.685791,57.1632708 293.705764,57.0434316 C293.725737,56.9835121 293.74571,56.9235925 293.765684,56.8636729 C293.80563,56.7438338 293.845576,56.6040214 293.86555,56.4841823 C293.925469,56.2844504 293.965416,56.1046917 294.025335,55.924933 C294.025335,55.9049598 294.045308,55.8650134 294.045308,55.8450402 C294.085255,55.7052279 294.125201,55.5654155 294.165147,55.4256032 C294.185121,55.3656836 294.205094,55.3257373 294.205094,55.2658177 C294.265013,55.086059 294.30496,54.9063003 294.364879,54.7465147 C294.384853,54.7065684 294.384853,54.666622 294.404826,54.6266756 C294.424799,54.566756 294.424799,54.5268097 294.444772,54.4668901 C294.484718,54.3270777 294.524665,54.1872654 294.564611,54.0674263 C294.584584,53.9675603 294.624531,53.8876676 294.644504,53.8077748 C294.74437,53.4682306 294.824263,53.1886059 294.884182,52.9489276 C294.964075,52.6892761 295.004021,52.5095174 295.043968,52.3896783 C295.063941,52.3297587 295.083914,52.2698391 295.083914,52.249866 C295.083914,52.2298928 295.083914,52.2298928 295.083914,52.2298928 C300.336863,36.3711796 296.521984,27.4431635 296.521984,27.4431635 C293.386193,20.8320375 289.471448,15.7987936 285.996113,12.1636729 C282.341019,8.66836461 277.287802,4.73364611 270.656702,1.57788204 C270.656702,1.57788204 261.708713,-2.25697051 245.830027,2.97600536 C245.830027,2.97600536 245.810054,2.97600536 245.810054,2.97600536 C245.79008,2.97600536 245.730161,2.99597855 245.670241,3.01595174 C245.550402,3.05589812 245.35067,3.0958445 245.110992,3.17573727 C244.871314,3.23565684 244.591689,3.3155496 244.252145,3.41541555 C244.172252,3.43538874 244.072386,3.47533512 243.992493,3.49530831 C243.872654,3.53525469 243.732842,3.57520107 243.593029,3.61514745 C243.53311,3.63512064 243.493164,3.63512064 243.433244,3.65509383 C243.393298,3.67506702 243.353351,3.67506702 243.313405,3.69504021 C243.153619,3.7349866 242.973861,3.79490617 242.794102,3.85482574 C242.734182,3.87479893 242.694236,3.89477212 242.634316,3.89477212 C242.494504,3.9347185 242.354692,3.97466488 242.214879,4.01461126 C242.194906,4.01461126 242.15496,4.03458445 242.134987,4.03458445 C241.955228,4.09450402 241.775469,4.1344504 241.575737,4.19436997 C241.455898,4.23431635 241.336059,4.27426273 241.196247,4.29423592 C241.136327,4.31420912 241.076408,4.33418231 241.016488,4.3541555 C240.896649,4.39410188 240.756836,4.43404826 240.636997,4.45402145 C240.437265,4.51394102 240.237534,4.57386059 240.017828,4.63378016 C239.937936,4.65375335 239.858043,4.67372654 239.77815,4.71367292 C239.358713,4.83351206 238.919303,4.95335121 238.45992,5.09316354 C238.34008,5.13310992 238.220241,5.15308311 238.100402,5.19302949 C237.860724,5.27292225 237.601072,5.33284182 237.341421,5.41273458 C237.221582,5.45268097 237.101743,5.49262735 236.96193,5.51260054 C236.882038,5.53257373 236.782172,5.57252011 236.702279,5.5924933 C236.442627,5.67238606 236.182976,5.73230563 235.923324,5.81219839 C235.743566,5.85214477 235.58378,5.91206434 235.404021,5.97198391 C235.264209,6.01193029 235.14437,6.05187668 235.004558,6.09182306 C234.904692,6.13176944 234.784853,6.15174263 234.684987,6.19168901 C234.345442,6.29155496 233.985925,6.39142091 233.626408,6.49128686 C233.546515,6.51126005 233.466622,6.53123324 233.406702,6.55120643 C233.206971,6.61112601 233.027212,6.67104558 232.82748,6.71099196 C232.567828,6.79088472 232.308177,6.85080429 232.048525,6.93069705 C231.88874,6.97064343 231.728954,7.030563 231.569169,7.07050938 C231.369437,7.13042895 231.169705,7.19034853 230.969973,7.2502681 C230.710322,7.33016086 230.430697,7.41005362 230.171046,7.48994638 C229.95134,7.54986595 229.731635,7.60978552 229.491957,7.68967828 C229.392091,7.70965147 229.292225,7.74959786 229.192359,7.76957105 C228.932708,7.84946381 228.673056,7.90938338 228.413405,7.98927614 C228.113807,8.0691689 227.814209,8.16903485 227.494638,8.24892761 C227.354826,8.28887399 227.19504,8.32882038 227.055228,8.36876676 C226.855496,8.42868633 226.635791,8.4886059 226.436059,8.54852547 C226.076542,8.64839142 225.717024,8.74825737 225.357507,8.86809651 C225.257641,8.88806971 225.177748,8.92801609 225.077882,8.94798928 C224.758311,9.04785523 224.458713,9.12774799 224.139142,9.22761394 C223.859517,9.3075067 223.579893,9.38739946 223.300268,9.46729223 C223.100536,9.5272118 222.900804,9.58713137 222.701072,9.64705094 C222.481367,9.70697051 222.261662,9.76689008 222.041957,9.84678284 C221.702413,9.94664879 221.342895,10.0465147 220.983378,10.1463807 C220.763673,10.2063003 220.563941,10.2662198 220.344236,10.3261394 C220.144504,10.386059 219.944772,10.4459786 219.74504,10.5058981 C219.265684,10.6457105 218.766354,10.7855228 218.286997,10.9253351 C218.207105,10.9453083 218.127212,10.9652815 218.047319,10.9852547 C217.767694,11.0651475 217.48807,11.1450402 217.208445,11.224933 C217.028686,11.2848525 216.848928,11.3247989 216.669169,11.3847185 C216.269705,11.5045576 215.850268,11.6243968 215.430831,11.7442359 C215.211126,11.8041555 214.991421,11.8640751 214.771716,11.9439678 C214.552011,12.0038874 214.332306,12.063807 214.112601,12.1436997 C213.693164,12.2635389 213.253753,12.383378 212.834316,12.5231903 C212.654558,12.5831099 212.494772,12.6230563 212.315013,12.6829759 C211.975469,12.7828418 211.655898,12.8827078 211.316354,12.9825737 C211.136595,13.0424933 210.956836,13.0824397 210.757105,13.1423592 C210.337668,13.2621984 209.918231,13.3820375 209.47882,13.5218499 C209.239142,13.6017426 208.999464,13.6616622 208.759786,13.741555 C208.380295,13.8613941 208.000804,13.9612601 207.621314,14.0810992 C207.441555,14.1410188 207.241823,14.2009383 207.062064,14.2408847 C206.642627,14.3607239 206.22319,14.480563 205.803753,14.6004021 C205.643968,14.6403485 205.504155,14.6802949 205.34437,14.7402145 C204.884987,14.8800268 204.425603,14.999866 203.96622,15.1396783 C211.056702,36.411126 222.161796,52.2898123 234.125737,64.113941 C245.889946,76.0379357 261.728686,87.0831099 282.940214,94.1136729 C283.020107,93.5743968 283.15992,93.1150134 283.299732,92.65563 Z" id="cap_1_" fill="#2C2A2A"></path>
            <g id="Group" transform="translate(208.038874, 26.764075)"></g>
            <path d="M205.544102,14.7202413 C205.544102,14.7202413 213.133914,44.8797587 236.96193,66.8702413 C236.96193,66.8702413 216.868901,52.3896783 203.706568,15.2395442 L205.544102,14.7202413 Z" id="Path" fill="#656666"></path>
            <path d="M223.420107,278.985523 C56.8836461,218.147185 27.1835121,104.699464 22.0504021,72.6424933 C17.8760054,74.4400804 -11.544504,88.5012064 5.11313673,119.998928 C5.11313673,119.998928 29.480429,170.85067 79.4733244,218.626542 C127.069437,268.439678 177.761394,292.647185 177.761394,292.647185 C204.485523,306.748257 218.666488,287.573995 223.420107,278.985523 Z" id="bottom_plate_1_" fill="#818282"></path>
            <g id="Group" transform="translate(0.000000, 24.766756)" fill="#4F4F4F">
                <path d="M270.057507,64.2537534 C251.961796,112.029625 217.168499,202.348391 196.356434,246.828686 L196.316488,246.928552 C196.256568,247.068365 190.983646,261.568901 183.154155,270.357105 C183.93311,270.656702 184.692091,270.936327 185.451072,271.176005 C193.080831,262.228016 198.034182,248.845979 198.433646,247.767426 C219.265684,203.247185 254.019035,113.008311 272.134718,65.1924933 C271.435657,64.8729223 270.736595,64.5733244 270.057507,64.2537534 Z" id="Path"></path>
                <path d="M240.77681,45.538874 C231.649062,56.7238606 219.445442,71.5040214 205.584048,87.7621984 C178.001072,120.13874 138.054692,165.238204 104.379893,196.236595 L104.339946,196.276542 C104.319973,196.296515 102.003083,198.573458 92.3160858,206.622654 C92.8753351,207.141957 93.4345845,207.681233 93.9738606,208.200536 C103.281367,200.490885 105.67815,198.154021 105.917828,197.914343 C153.334182,154.292895 213.473458,82.5491957 242.474531,47.0168901 C241.915282,46.5175603 241.336059,46.0382038 240.77681,45.538874 Z" id="Path"></path>
                <path d="M109.552949,30.4191689 L110.112198,31.6175603 C149.818901,19.3540214 188.706702,7.92935657 208.500134,2.15710456 C208.200536,1.4580429 207.880965,0.758981233 207.581367,0.059919571 C170.371314,10.9053619 67.2497319,41.3045576 16.1383378,60.0793566 C15.1796247,60.2790885 8.42868633,62.0966488 0.59919571,71.7037534 C0.319571046,73.1218499 0.139812332,74.599866 0.0798927614,76.1577748 C2.61648794,72.6225201 5.5924933,69.2071046 9.00790885,66.4907507 C13.4819035,62.955496 16.6376676,62.2764075 16.6576408,62.2764075 L16.7375335,62.2564343 L16.8174263,62.2164879 C40.086193,53.6679625 74.1604558,42.7226542 107.895174,32.2766756 L107.475737,31.377882 L109.552949,30.4191689 Z" id="Path"></path>
                <path d="M114.965684,41.863807 L110.112198,31.6175603 L109.552949,30.4191689 L107.49571,31.3978552 L107.915147,32.2966488 L112.049598,41.024933 C104.180161,46.0981233 48.4349866,82.0698391 38.088874,92.3760054 C36.9104558,93.3546917 24.8865952,103.441153 16.1383378,114.985657 C16.5577748,115.664745 16.9772118,116.363807 17.416622,117.082842 C18.6549598,115.405094 19.9731903,113.787265 21.2514745,112.24933 C29.6402145,102.322654 39.4670241,94.1735925 39.5668901,94.0936997 L39.6467828,94.013807 C50.2725201,83.3880697 113.467694,42.8025469 114.106836,42.4030831 L114.965684,41.863807 Z" id="Path"></path>
            </g>
            <g id="Group-2" transform="translate(77.000000, 54.000000)">
                <circle id="Oval" fill="#000000" cx="80.4859165" cy="80.4859165" r="74.4859165"></circle>
                <path d="M153.230797,48.71765 C149.216953,39.2192403 143.456627,30.7013115 136.13366,23.378344 C128.810692,16.0553765 120.292763,10.2950506 110.794354,6.28120645 C100.958904,2.11416217 90.5106529,0 79.7560019,0 C69.0013508,0 58.5531001,2.11416217 48.71765,6.28120645 C39.2192403,10.2950506 30.7013115,16.0553765 23.378344,23.378344 C16.0553765,30.7013115 10.2950506,39.2192403 6.28120645,48.71765 C2.11416217,58.5531001 0,69.0013508 0,79.7560019 C0,90.5106529 2.11416217,100.958904 6.28120645,110.794354 C10.2950506,120.292763 16.0553765,128.810692 23.378344,136.13366 C30.7013115,143.456627 39.2192403,149.216953 48.71765,153.230797 C58.5531001,157.397842 69.0013508,159.512004 79.7560019,159.512004 C90.5106529,159.512004 100.958904,157.397842 110.794354,153.230797 C120.292763,149.216953 128.810692,143.456627 136.13366,136.13366 C143.456627,128.810692 149.216953,120.292763 153.230797,110.794354 C157.397842,100.958904 159.512004,90.5106529 159.512004,79.7560019 C159.512004,69.0013508 157.397842,58.5837401 153.230797,48.71765 Z M142.905107,106.474109 C139.442783,114.624358 134.509738,121.977965 128.197892,128.259172 C122.406926,134.050138 115.758039,138.676782 108.404431,142.077826 L108.741472,135.122539 C110.212193,125.838609 109.752593,98.9060215 109.752593,98.9060215 C125.685409,89.3463317 128.871972,78.4691205 128.871972,78.4691205 C130.495894,75.006797 130.741014,71.6670336 130.465254,68.8481507 C130.250774,65.6309474 128.841332,61.8622235 127.370611,58.7369403 C126.48205,56.3470178 125.225809,54.1409356 123.816367,52.2106136 C119.802523,46.6341279 114.808198,43.2637244 114.808198,43.2637244 C112.479555,29.19995 105.401708,23.7153843 105.401708,23.7153843 C102.950506,20.8045814 101.204024,22.9800236 101.204024,22.9800236 C100.775063,23.9911446 97.7417003,28.0356288 97.7417003,28.0356288 C93.8197763,32.3865132 93.3908159,38.1774792 93.3908159,38.1774792 C77.0290391,35.7262767 69.215831,41.3640425 69.215831,41.3640425 C69.3690312,37.7485187 66.0292678,34.5619555 66.0292678,34.5619555 L58.2160598,25.8601865 C54.4473359,23.1025837 53.2830147,27.0245077 53.2830147,27.0245077 C50.8318122,32.5397134 47.9210092,38.7596398 47.9210092,38.7596398 C45.0102062,44.5506057 45.5923668,47.3082086 45.5923668,47.3082086 C45.745567,53.5281349 48.0435693,56.4389379 48.0435693,56.4389379 C47.0324483,59.1965408 45.4391666,64.4053461 45.4391666,64.4053461 C43.4169246,70.0431119 46.0213272,74.8229568 46.0213272,74.8229568 C47.8903692,82.0540042 59.6255012,92.1958546 59.6255012,92.1958546 C59.6255012,92.1958546 55.6422971,97.8949005 52.0574134,101.265304 C51.7203731,101.541064 51.4139728,101.847465 51.0769324,102.153865 C51.0769324,102.153865 51.0769324,102.153865 51.0769324,102.153865 C50.9850123,102.215145 50.9237323,102.307065 50.8624522,102.368345 C43.2024443,109.384912 33.7959547,120.691084 29.3531501,126.20629 C23.9605046,120.384684 19.6709002,113.735797 16.606897,106.443469 C13.0220134,97.9868206 11.2142515,89.0092914 11.2142515,79.7560019 C11.2142515,70.5027124 13.0220134,61.5251832 16.606897,53.0685345 C20.0692206,44.9182861 25.0022657,37.5646786 31.3141121,31.2834721 C37.6259586,24.9716256 44.9489261,20.0385806 53.0991745,16.576257 C61.5558232,12.9913733 70.5333524,11.1836115 79.7866419,11.1836115 C89.0399314,11.1836115 98.0174606,12.9913733 106.474109,16.576257 C114.624358,20.0385806 121.977965,24.9716256 128.259172,31.2834721 C134.571018,37.5953186 139.504063,44.9182861 142.966387,53.0685345 C146.55127,61.5251832 148.359032,70.5027124 148.359032,79.7560019 C148.297752,89.0399314 146.45935,98.0174606 142.905107,106.474109 Z" id="Shape" fill="#4F4F4F" fill-rule="nonzero"></path>
                <path d="M108.737328,64.3370661 C108.737328,64.3370661 111.648131,62.1003438 108.737328,60.9053826 C108.737328,60.9053826 105.887805,60.0781018 103.130202,61.5181832 C103.130202,61.5181832 102.333561,62.3454641 103.130202,63.1727449 C103.130202,63.1421049 104.784764,65.8384277 108.737328,64.3370661 Z" id="Path" fill="#FFFFFF"></path>
                <path d="M118.115445,68.6689008 C117.441365,68.6689008 116.920484,69.1897813 116.920484,69.863862 C116.920484,69.9251421 116.920484,69.9864222 116.951124,70.0783423 C116.767284,70.813703 115.940003,72.713385 112.84536,73.3568256 L112.75344,73.3874656 L112.66152,73.4181057 C112.66152,73.4181057 111.803599,73.693866 110.731198,73.5406658 C109.229836,73.2955456 107.973595,72.2844245 107.054394,70.5379427 L106.165833,68.852741 C105.951353,69.4349016 105.246632,71.2426634 104.664472,72.3150645 C104.572552,72.5601848 104.449991,72.8053051 104.296791,73.0504253 C103.46951,74.3373066 101.937509,75.0113873 99.7620666,75.1033074 L99.6701465,75.1033074 C99.6701465,75.1033074 98.5671054,75.2258675 97.4334242,74.8275471 C96.1771829,74.3985867 95.4111821,73.5100258 95.1354218,72.1312244 C95.1354218,72.0699443 95.1660619,71.9780242 95.1660619,71.9167441 C95.1660619,71.2426634 94.6451813,70.7217829 93.9711006,70.7217829 C93.2970199,70.7217829 92.7761394,71.2426634 92.7761394,71.9167441 C92.7761394,72.1312244 92.8374195,72.3457046 92.9293396,72.4989047 C93.4808601,75.2871476 95.319262,76.4821088 96.7899835,76.9723493 C97.7398245,77.2787496 98.6590254,77.3706697 99.2718261,77.3706697 C99.5782264,77.3706697 99.7927066,77.3400297 99.9152667,77.3400297 C103.653351,77.1868295 105.430472,75.5322678 106.288393,74.1534664 C106.380313,74.0002663 106.472233,73.8164261 106.564154,73.6632259 C107.881675,75.0420273 109.291116,75.5629079 110.424798,75.7467481 C111.895519,75.9918683 113.05984,75.654828 113.396881,75.5322678 C117.778405,74.6130669 118.912086,71.6716239 119.187847,70.4766627 C119.310407,70.2928225 119.371687,70.0783423 119.371687,69.863862 C119.310407,69.1897813 118.789526,68.6689008 118.115445,68.6689008 Z" id="Path" fill="#FFFFFF"></path>
                <path d="M121.031435,61.6984051 C118.903357,62.7773567 115.732844,60.8012431 113.949896,57.284632 C112.166948,53.7680209 112.446731,50.0425813 114.574809,48.9636298 C116.702887,47.8846783 119.8734,49.8607918 121.656348,53.3774029 C123.439296,56.894014 123.159513,60.6194536 121.031435,61.6984051 Z" id="Oval" fill="#FFFFFF"></path>
                <path d="M89.3273068,57.9387473 C86.3309616,61.4552721 81.8866091,62.588761 79.4005678,60.4704657 C76.9145264,58.3521703 77.3282095,53.7842461 80.3245547,50.2677213 C83.3208999,46.7511965 87.7652524,45.6177075 90.2512937,47.7360029 C92.7373351,49.8542982 92.323652,54.4222225 89.3273068,57.9387473 Z" id="Oval" fill="#FFFFFF"></path>
                <g id="Group" transform="translate(77.776139, 46.668901)"></g>
                <path d="M79.6334417,159.266883 C68.8787907,159.266883 58.46118,157.152721 48.6257299,153.016317 C39.1579602,149.002473 30.6400315,143.272787 23.3170639,135.94982 C15.9940964,128.626852 10.2644105,120.139563 6.25056642,110.641154 C2.08352214,100.836344 0,90.3880928 0,79.6334417 C0,68.8787907 2.11416217,58.46118 6.25056642,48.6257299 C10.2644105,39.1579602 15.9940964,30.6400315 23.3170639,23.3170639 C30.6400315,15.9940964 39.1273202,10.2644105 48.6257299,6.25056642 C58.43054,2.08352214 68.8787907,0 79.6334417,0 C90.3880928,0 100.805703,2.11416217 110.641154,6.25056642 C120.108923,10.2644105 128.626852,15.9940964 135.94982,23.3170639 C143.272787,30.6400315 149.002473,39.1273202 153.016317,48.6257299 C157.183361,58.43054 159.266883,68.8787907 159.266883,79.6334417 C159.266883,90.3880928 157.152721,100.805703 153.016317,110.641154 C149.002473,120.108923 143.272787,128.626852 135.94982,135.94982 C128.626852,143.272787 120.139563,149.002473 110.641154,153.016317 C100.805703,157.183361 90.3880928,159.266883 79.6334417,159.266883 Z M79.6334417,11.2448915 C70.3801522,11.2448915 61.4332631,13.0526534 53.0072544,16.606897 C44.857006,20.0385806 37.5340385,25.0022657 31.2528321,31.2834721 C24.9716256,37.5646786 20.0385806,44.8876461 16.576257,53.0378944 C13.0220134,61.4639031 11.2142515,70.4414323 11.2142515,79.6640818 C11.2142515,88.9173713 13.0220134,97.8642605 16.576257,106.290269 C20.0079405,114.440517 24.9716256,121.763485 31.2528321,128.044691 C37.5340385,134.325898 44.857006,139.258943 53.0072544,142.721267 C61.4332631,146.27551 70.4107923,148.083272 79.6334417,148.083272 C88.8867312,148.083272 97.8336204,146.27551 106.259629,142.721267 C114.409877,139.289583 121.732845,134.325898 128.014051,128.044691 C134.295258,121.763485 139.228303,114.440517 142.690626,106.290269 C146.24487,97.8642605 148.052632,88.8867312 148.052632,79.6640818 C148.052632,70.4107923 146.24487,61.4639031 142.690626,53.0378944 C139.258943,44.8876461 134.295258,37.5646786 128.014051,31.2834721 C121.732845,25.0022657 114.409877,20.0692206 106.259629,16.606897 C97.8336204,13.0526534 88.8867312,11.2448915 79.6334417,11.2448915 Z" id="Shape" fill="#818282" fill-rule="nonzero"></path>
                <path d="M109.669835,99 C97.4309698,103.704173 80.8743583,101.704173 60,93 L91.9990163,147.060137 C91.9990163,147.060137 101.21902,145.031195 110,141 C111.541619,131.493599 111.431564,117.493599 109.669835,99 Z" id="Path" fill="#363636"></path>
            </g>
        </g>
    </g>
</svg>