<?xml version="1.0" encoding="UTF-8"?>
<svg width="298px" height="298px" viewBox="0 0 298 298" version="1.1" xmlns="http://www.w3.org/2000/svg" xmlns:xlink="http://www.w3.org/1999/xlink">
    <!-- Generator: Sketch 52.6 (67491) - http://www.bohemiancoding.com/sketch -->
    <title>logo--low-detail</title>
    <desc>Created with Sketch.</desc>
    <g id="logo--low-detail" stroke="none" stroke-width="1" fill="none" fill-rule="evenodd">
        <g id="capsule" transform="translate(0.000000, 1.000000)">
            <g id="Group-2">
                <circle id="Oval" fill="#000000" cx="149.905019" cy="149.905019" r="138.730019"></circle>
                <path d="M285.39236,90.7366231 C277.916575,73.045835 267.187968,57.1811927 253.548941,43.5421657 C239.909914,29.9031387 224.045272,19.1745317 206.354484,11.698747 C188.035958,3.93762704 168.576091,0 148.545553,0 C128.515016,0 109.055149,3.93762704 90.7366231,11.698747 C73.045835,19.1745317 57.1811927,29.9031387 43.5421657,43.5421657 C29.9031387,57.1811927 19.1745317,73.045835 11.698747,90.7366231 C3.93762704,109.055149 0,128.515016 0,148.545553 C0,168.576091 3.93762704,188.035958 11.698747,206.354484 C19.1745317,224.045272 29.9031387,239.909914 43.5421657,253.548941 C57.1811927,267.187968 73.045835,277.916575 90.7366231,285.39236 C109.055149,293.15348 128.515016,297.091107 148.545553,297.091107 C168.576091,297.091107 188.035958,293.15348 206.354484,285.39236 C224.045272,277.916575 239.909914,267.187968 253.548941,253.548941 C267.187968,239.909914 277.916575,224.045272 285.39236,206.354484 C293.15348,188.035958 297.091107,168.576091 297.091107,148.545553 C297.091107,128.515016 293.15348,109.112216 285.39236,90.7366231 Z M266.160761,198.308029 C259.712184,213.487866 250.524387,227.18396 238.768573,238.882707 C227.982899,249.668381 215.599347,258.285507 201.903253,264.619951 L202.530991,251.665728 C205.27021,234.37441 204.414204,184.212465 204.414204,184.212465 C234.089074,166.407543 240.024048,146.148737 240.024048,146.148737 C243.048602,139.700159 243.505139,133.47985 242.991535,128.229681 C242.592066,122.237639 239.966981,115.218391 237.227763,109.397551 C235.572818,104.946321 233.233068,100.837493 230.607984,97.2422678 C223.132199,86.8560632 213.830268,80.5786867 213.830268,80.5786867 C209.493172,54.3849068 196.310682,44.1699033 196.310682,44.1699033 C191.745317,38.7485328 188.492494,42.8002939 188.492494,42.8002939 C187.693556,44.6835069 182.043917,52.2163586 182.043917,52.2163586 C174.739333,60.3198809 173.940395,71.105555 173.940395,71.105555 C143.466585,66.5401903 128.914485,77.0405291 128.914485,77.0405291 C129.199821,70.3066162 122.979511,64.3716421 122.979511,64.3716421 L108.427411,48.1645974 C101.408163,43.0285622 99.2396149,50.3331457 99.2396149,50.3331457 C94.6742502,60.6052162 89.2528796,72.1898291 89.2528796,72.1898291 C83.8315091,82.9755032 84.9157832,88.1115384 84.9157832,88.1115384 C85.2011185,99.6961513 89.4811479,105.117522 89.4811479,105.117522 C87.5979349,110.253557 84.6304479,119.954957 84.6304479,119.954957 C80.864022,130.455296 85.714722,139.357757 85.714722,139.357757 C89.1958126,152.825583 111.052496,171.714779 111.052496,171.714779 C111.052496,171.714779 103.633778,182.329252 96.9569325,188.606629 C96.3291949,189.120232 95.7585243,189.690903 95.1307867,190.261573 C95.1307867,190.261573 95.1307867,190.261573 95.1307867,190.261573 C94.9595855,190.375707 94.8454514,190.546909 94.7313172,190.661043 C80.4645526,203.729399 62.9449656,224.787144 54.6702421,235.059214 C44.6264398,224.216473 36.6370516,211.832921 30.9303457,198.250962 C24.2534999,182.500453 20.8865434,165.779805 20.8865434,148.545553 C20.8865434,131.311302 24.2534999,114.590654 30.9303457,98.8401455 C37.3789234,83.6603079 46.5667198,69.9642138 58.3225339,58.2654668 C70.0783479,46.5096527 83.7173749,37.3218563 98.8972125,30.8732787 C114.647721,24.1964328 131.368369,20.8294764 148.602621,20.8294764 C165.836872,20.8294764 182.55752,24.1964328 198.308029,30.8732787 C213.487866,37.3218563 227.18396,46.5096527 238.882707,58.2654668 C250.638521,70.0212809 259.826318,83.6603079 266.274895,98.8401455 C272.951741,114.590654 276.318698,131.311302 276.318698,148.545553 C276.204564,165.836872 272.78054,182.55752 266.160761,198.308029 Z" id="Shape" fill="#4F4F4F" fill-rule="nonzero"></path>
                <path d="M202.523273,119.827786 C202.523273,119.827786 207.944644,115.66189 202.523273,113.436275 C202.523273,113.436275 197.216036,111.895465 192.080001,114.577616 C192.080001,114.577616 190.596258,116.118427 192.080001,117.659237 C192.080001,117.60217 195.161622,122.624072 202.523273,119.827786 Z" id="Path" fill="#FFFFFF"></path>
                <path d="M219.990017,127.895828 C218.734542,127.895828 217.764402,128.865968 217.764402,130.121443 C217.764402,130.235577 217.764402,130.349711 217.821469,130.520912 C217.479067,131.890522 215.938256,135.428679 210.174483,136.627088 L210.003282,136.684155 L209.832081,136.741222 C209.832081,136.741222 208.234203,137.254825 206.236856,136.96949 C203.44057,136.512954 201.100821,134.629741 199.388809,131.376918 L197.733864,128.23823 C197.334395,129.322504 196.021852,132.689461 194.937578,134.686808 C194.766377,135.143344 194.538109,135.599881 194.252774,136.056417 C192.711963,138.453234 189.85861,139.708709 185.806849,139.87991 L185.635648,139.87991 C185.635648,139.87991 183.581234,140.108178 181.469753,139.366307 C179.130003,138.567368 177.703327,136.912423 177.189723,134.344405 C177.189723,134.230271 177.24679,134.05907 177.24679,133.944936 C177.24679,132.689461 176.27665,131.719321 175.021175,131.719321 C173.7657,131.719321 172.79556,132.689461 172.79556,133.944936 C172.79556,134.344405 172.909694,134.743875 173.080895,135.02921 C174.108102,140.222312 177.532126,142.447928 180.271344,143.361001 C182.040423,143.931671 183.752435,144.102872 184.893776,144.102872 C185.464447,144.102872 185.863916,144.045805 186.092184,144.045805 C193.054365,143.76047 196.364255,140.678849 197.962132,138.110831 C198.133334,137.825496 198.304535,137.483094 198.475736,137.197758 C200.92962,139.765776 203.554704,140.735916 205.666185,141.078318 C208.405404,141.534855 210.573952,140.907117 211.20169,140.678849 C219.362279,138.966837 221.473761,133.488399 221.987364,131.262784 C222.215632,130.920382 222.329766,130.520912 222.329766,130.121443 C222.215632,128.865968 221.245492,127.895828 219.990017,127.895828 Z" id="Path" fill="#FFFFFF"></path>
                <path d="M225.421048,114.91328 C221.457503,116.922827 215.552422,113.242315 212.231681,106.692627 C208.91094,100.142939 209.432036,93.2043077 213.395581,91.1947605 C217.359126,89.1852133 223.264207,92.8657248 226.584948,99.415413 C229.905689,105.965101 229.384594,112.903732 225.421048,114.91328 Z" id="Oval" fill="#FFFFFF"></path>
                <path d="M166.372109,107.910917 C160.791416,114.460444 152.51381,116.571567 147.883558,112.626242 C143.253306,108.680917 144.02379,100.173158 149.604483,93.6236308 C155.185176,87.0741034 163.462783,84.9629803 168.093035,88.9083053 C172.723287,92.8536304 171.952802,101.361389 166.372109,107.910917 Z" id="Oval" fill="#FFFFFF"></path>
                <g id="Group" transform="translate(144.858060, 86.920828)"></g>
                <path d="M148.317285,296.63457 C128.286748,296.63457 108.883948,292.696943 90.565422,284.992891 C72.9317009,277.517106 57.0670586,266.845566 43.4280316,253.206539 C29.7890046,239.567512 19.1174646,223.759937 11.64168,206.069149 C3.88055998,187.80769 0,168.347823 0,148.317285 C0,128.286748 3.93762704,108.883948 11.64168,90.565422 C19.1174646,72.9317009 29.7890046,57.0670586 43.4280316,43.4280316 C57.0670586,29.7890046 72.8746338,19.1174646 90.565422,11.64168 C108.826881,3.88055998 128.286748,0 148.317285,0 C168.347823,0 187.750623,3.93762704 206.069149,11.64168 C223.70287,19.1174646 239.567512,29.7890046 253.206539,43.4280316 C266.845566,57.0670586 277.517106,72.8746338 284.992891,90.565422 C292.754011,108.826881 296.63457,128.286748 296.63457,148.317285 C296.63457,168.347823 292.696943,187.750623 284.992891,206.069149 C277.517106,223.70287 266.845566,239.567512 253.206539,253.206539 C239.567512,266.845566 223.759937,277.517106 206.069149,284.992891 C187.750623,292.754011 168.347823,296.63457 148.317285,296.63457 Z M148.317285,20.9436105 C131.083034,20.9436105 114.419452,24.310567 98.7260113,30.9303457 C83.5461738,37.3218563 69.9071468,46.5667198 58.2083998,58.2654668 C46.5096527,69.9642138 37.3218563,83.6032408 30.8732787,98.7830784 C24.2534999,114.47652 20.8865434,131.197168 20.8865434,148.374352 C20.8865434,165.608604 24.2534999,182.272185 30.8732787,197.965626 C37.2647893,213.145464 46.5096527,226.784491 58.2083998,238.483238 C69.9071468,250.181985 83.5461738,259.369781 98.7260113,265.818359 C114.419452,272.438138 131.140101,275.805094 148.317285,275.805094 C165.551537,275.805094 182.215118,272.438138 197.908559,265.818359 C213.088397,259.426848 226.727424,250.181985 238.426171,238.483238 C250.124918,226.784491 259.312714,213.145464 265.761292,197.965626 C272.381071,182.272185 275.748027,165.551537 275.748027,148.374352 C275.748027,131.140101 272.381071,114.47652 265.761292,98.7830784 C259.369781,83.6032408 250.124918,69.9642138 238.426171,58.2654668 C226.727424,46.5667198 213.088397,37.3789234 197.908559,30.9303457 C182.215118,24.310567 165.551537,20.9436105 148.317285,20.9436105 Z" id="Shape" fill="#818282" fill-rule="nonzero"></path>
                <path d="M204.260067,184.3875 C181.465181,193.149023 150.628492,189.424023 111.75,173.2125 L171.348168,273.899504 C171.348168,273.899504 188.520425,270.120602 204.875,262.6125 C207.746266,244.906828 207.541288,218.831828 204.260067,184.3875 Z" id="Path" fill="#363636"></path>
            </g>
        </g>
    </g>
</svg>