<?xml version="1.0" encoding="utf-8"?>
<!-- Generator: Adobe Illustrator 19.2.0, SVG Export Plug-In . SVG Version: 6.00 Build 0)  -->
<svg version="1.1" id="Layer_1" xmlns="http://www.w3.org/2000/svg" xmlns:xlink="http://www.w3.org/1999/xlink" x="0px" y="0px"
	 viewBox="0 0 1500 1500" style="enable-background:new 0 0 1500 1500;" xml:space="preserve">
<style type="text/css">
	.st0{fill:#E2E2E2;}
	.st1{fill:#2C2A2A;}
	.st2{fill:#FFFFFF;}
	.st3{fill:#656666;}
	.st4{fill:#4F4F4F;}
	.st5{display:none;fill:#FFFFFF;}
	.st6{fill:#818282;}
	.st7{fill:none;stroke:#2C2A2A;stroke-width:8;stroke-miterlimit:10;}
	.st8{fill:#B2B1B1;}
	.st9{fill:#363636;}
</style>
<path id="capsule_body_1_" class="st0" d="M1133.9,1379.7c67.1-163.7,207.6-631.5,288.5-906.9c-106.2-35.2-185.5-90.5-244.4-150.2
	c-59.9-59.1-115.5-138.7-151-245.2C751.2,158,282.7,297.8,118.8,364.7c0,0-176.8,68.6-87.2,238.1c0,0,122,254.6,372.3,493.8
	C642.2,1346,896,1467.2,896,1467.2C1065,1556.3,1133.9,1379.7,1133.9,1379.7z"/>
<path id="cap_1_" class="st1" d="M1424.4,465.9c0.2-0.8,0.4-1.5,0.7-2.3c0.6-2.1,1.2-4.2,1.8-6.3c0.3-0.9,0.6-1.9,0.8-2.8
	c0.6-1.9,1.1-3.8,1.7-5.7c0.4-1.2,0.7-2.4,1.1-3.6c0.6-2.1,1.3-4.3,1.9-6.4c0.3-0.9,0.5-1.8,0.8-2.8c0.5-1.7,1-3.3,1.5-5
	c0.3-0.9,0.5-1.7,0.8-2.6c0.6-2.2,1.3-4.3,1.9-6.4c0.3-1.1,0.6-2.2,1-3.3c0.3-1.1,0.6-2.2,1-3.3c0.6-2.1,1.2-4.1,1.8-6.2
	c0.3-0.9,0.5-1.8,0.8-2.7c0.4-1.4,0.8-2.8,1.2-4.2c0.1-0.4,0.2-0.8,0.3-1.2c0.7-2.5,1.4-4.9,2.1-7.3c0.3-1,0.6-2,0.9-3
	c0.3-1.1,0.6-2.1,0.9-3.2c0.5-1.8,1-3.5,1.5-5.2c0.3-1.1,0.6-2.2,1-3.3c0.3-1,0.6-2,0.9-3c0.4-1.4,0.8-2.8,1.2-4.2
	c0.5-1.6,0.9-3.2,1.4-4.7c0.1-0.5,0.3-0.9,0.4-1.4c0.5-1.8,1.1-3.6,1.6-5.4c0.3-1.1,0.6-2.1,0.9-3.1c0.2-0.8,0.4-1.5,0.7-2.2
	c0.4-1.5,0.9-3,1.3-4.5c0.4-1.3,0.8-2.6,1.1-3.9c0.1-0.5,0.3-1,0.4-1.5c0.3-1.1,0.7-2.3,1-3.4c0.4-1.4,0.8-2.7,1.2-4
	c0.3-1,0.6-2,0.9-2.9c0.2-0.8,0.5-1.6,0.7-2.4c0.4-1.3,0.8-2.6,1.1-3.9c0.3-1,0.6-1.9,0.8-2.9c0.1-0.4,0.2-0.8,0.3-1.1
	c0.5-1.8,1-3.6,1.5-5.3c0.2-0.5,0.3-1.1,0.5-1.6c0.2-0.7,0.4-1.3,0.6-2c0.3-0.9,0.5-1.8,0.8-2.6c0.4-1.3,0.8-2.6,1.1-3.9
	c0.1-0.4,0.3-0.9,0.4-1.3c0.2-0.6,0.4-1.2,0.5-1.9c0.4-1.3,0.7-2.5,1.1-3.8c0.2-0.6,0.3-1.2,0.5-1.8c0.7-2.3,1.3-4.5,1.9-6.6
	c0.1-0.4,0.2-0.8,0.4-1.2c0.3-1.1,0.6-2.1,0.9-3.1c0.2-0.6,0.4-1.3,0.5-1.9c0.1-0.3,0.2-0.6,0.3-0.9c0.2-0.6,0.4-1.3,0.5-1.9
	c0.3-1,0.5-1.9,0.8-2.8c0-0.1,0.1-0.3,0.1-0.4c0.2-0.7,0.4-1.4,0.6-2.1c0.1-0.3,0.2-0.5,0.2-0.8c0.3-0.9,0.5-1.8,0.8-2.6
	c0.1-0.2,0.1-0.4,0.2-0.6c0.1-0.3,0.1-0.5,0.2-0.8c0.2-0.7,0.4-1.4,0.6-2c0.1-0.5,0.3-0.9,0.4-1.3c0.5-1.7,0.9-3.1,1.2-4.3
	c0.4-1.3,0.6-2.2,0.8-2.8c0.1-0.3,0.2-0.6,0.2-0.7c0-0.1,0-0.1,0-0.1c26.3-79.4,7.2-124.1,7.2-124.1c-15.7-33.1-35.3-58.3-52.7-76.5
	c-18.3-17.5-43.6-37.2-76.8-53c0,0-44.8-19.2-124.3,7c0,0-0.1,0-0.1,0c-0.1,0-0.4,0.1-0.7,0.2c-0.6,0.2-1.6,0.4-2.8,0.8
	c-1.2,0.3-2.6,0.7-4.3,1.2c-0.4,0.1-0.9,0.3-1.3,0.4c-0.6,0.2-1.3,0.4-2,0.6c-0.3,0.1-0.5,0.1-0.8,0.2c-0.2,0.1-0.4,0.1-0.6,0.2
	c-0.8,0.2-1.7,0.5-2.6,0.8c-0.3,0.1-0.5,0.2-0.8,0.2c-0.7,0.2-1.4,0.4-2.1,0.6c-0.1,0-0.3,0.1-0.4,0.1c-0.9,0.3-1.8,0.5-2.8,0.8
	c-0.6,0.2-1.2,0.4-1.9,0.5c-0.3,0.1-0.6,0.2-0.9,0.3c-0.6,0.2-1.3,0.4-1.9,0.5c-1,0.3-2,0.6-3.1,0.9c-0.4,0.1-0.8,0.2-1.2,0.4
	c-2.1,0.6-4.3,1.2-6.6,1.9c-0.6,0.2-1.2,0.3-1.8,0.5c-1.2,0.4-2.5,0.7-3.8,1.1c-0.6,0.2-1.2,0.4-1.9,0.5c-0.4,0.1-0.9,0.3-1.3,0.4
	c-1.3,0.4-2.6,0.7-3.9,1.1c-0.9,0.2-1.7,0.5-2.6,0.8c-0.7,0.2-1.3,0.4-2,0.6c-0.5,0.2-1.1,0.3-1.6,0.5c-1.7,0.5-3.5,1-5.3,1.5
	c-0.4,0.1-0.8,0.2-1.1,0.3c-1,0.3-1.9,0.6-2.9,0.8c-1.3,0.4-2.6,0.7-3.9,1.1c-0.8,0.2-1.6,0.5-2.4,0.7c-1,0.3-2,0.6-3,0.9
	c-1.3,0.4-2.7,0.8-4,1.2c-1.1,0.3-2.2,0.6-3.4,1c-0.5,0.1-1,0.3-1.5,0.4c-1.3,0.4-2.6,0.7-3.9,1.1c-1.5,0.4-3,0.9-4.6,1.3
	c-0.7,0.2-1.5,0.4-2.2,0.6c-1,0.3-2.1,0.6-3.1,0.9c-1.8,0.5-3.6,1-5.4,1.6c-0.5,0.1-0.9,0.3-1.4,0.4c-1.6,0.5-3.1,0.9-4.7,1.4
	c-1.4,0.4-2.8,0.8-4.2,1.2c-1,0.3-2,0.6-3,0.9c-1.1,0.3-2.2,0.6-3.3,1c-1.7,0.5-3.5,1-5.3,1.5c-1.1,0.3-2.1,0.6-3.2,0.9
	c-1,0.3-2,0.6-3,0.9c-2.4,0.7-4.9,1.4-7.3,2.1c-0.4,0.1-0.8,0.2-1.2,0.3c-1.4,0.4-2.8,0.8-4.2,1.2c-0.9,0.3-1.8,0.5-2.7,0.8
	c-2,0.6-4.1,1.2-6.2,1.8c-1.1,0.3-2.2,0.6-3.3,1c-1.1,0.3-2.2,0.6-3.3,1c-2.1,0.6-4.3,1.2-6.4,1.9c-0.9,0.3-1.7,0.5-2.6,0.8
	c-1.7,0.5-3.3,1-5,1.5c-0.9,0.3-1.8,0.5-2.8,0.8c-2.1,0.6-4.2,1.2-6.4,1.9c-1.2,0.4-2.4,0.7-3.6,1.1c-1.9,0.6-3.8,1.1-5.7,1.7
	c-0.9,0.3-1.9,0.6-2.8,0.8c-2.1,0.6-4.2,1.2-6.3,1.8c-0.8,0.2-1.5,0.4-2.3,0.7c-2.3,0.7-4.6,1.3-6.9,2v0
	c35.5,106.5,91.1,186,151,245.2c58.9,59.7,138.2,115,244.4,150.2l0,0C1423,470.5,1423.7,468.2,1424.4,465.9z"/>
<path class="st2" d="M992,1318.8c0,0-6.8-17.3-5.8-35.9C986.2,1282.9,999,1301.7,992,1318.8z"/>
<path class="st2" d="M983,1333.4c0,0-7.8-11.3-4.1-27.7C979,1305.8,989.4,1316.7,983,1333.4z"/>
<path class="st2" d="M1329.8,450.5c0,0-4,23.1,2.7,46.1C1332.4,496.6,1340.8,466.1,1329.8,450.5z"/>
<path class="st2" d="M1317,472.9c0,0,10.5,12.2,4.5,26.4C1321.5,499.3,1313.7,490.7,1317,472.9z"/>
<path class="st2" d="M1019,117.2c0,0,9.7-12.4,1.1-28.5C1020.1,88.6,1012.8,102.1,1019,117.2z"/>
<path class="st2" d="M1005.9,116.6c0,0,5.1-8.5-1-17.1C1004.8,99.5,999.6,110.4,1005.9,116.6z"/>
<path class="st2" d="M539.4,330.3c0,0,8.7-10.4-3-27.2C536.3,303.1,532,321,539.4,330.3z"/>
<path class="st2" d="M527,334c0,0,6-9.6-4-17.6C523,316.4,519.7,330.1,527,334z"/>
<path class="st3" d="M1317,49.5c0,0,3.6-10.9,15.9-7.8C1332.9,41.7,1326.3,49.5,1317,49.5z"/>
<path class="st3" d="M1332.4,91.1c0,0,44.9,70.4,81.2,94.6c0,0,2.5,5.8-6.9,0.5C1406.8,186.2,1356.9,146.3,1332.4,91.1z"/>
<path class="st3" d="M1454.2,202.8c0,0,10.3-7.3,9.8-18.2C1463.9,184.6,1474.1,201.3,1454.2,202.8z"/>
<path class="st3" d="M1477.1,191.5c0,0,0.7,12.1-4.4,13.7C1472.8,205.3,1486.5,202.2,1477.1,191.5z"/>
<path class="st3" d="M1336.7,33c0,0-16.6-4.6-26.7,5.5C1310,38.5,1314.5,15.5,1336.7,33z"/>
<path class="st3" d="M1332.3,3.7c-21.1-2-53.5-0.8-95.5,13c0,0-0.1,0-0.1,0c-0.1,0-0.4,0.1-0.7,0.2c-0.6,0.2-1.6,0.4-2.8,0.8
	c-1.2,0.3-2.6,0.7-4.3,1.2c-0.4,0.1-0.9,0.3-1.3,0.4c-0.6,0.2-1.3,0.4-2,0.6c-0.3,0.1-0.5,0.1-0.8,0.2c-0.2,0.1-0.4,0.1-0.6,0.2
	c-0.8,0.2-1.7,0.5-2.6,0.8c-0.3,0.1-0.5,0.2-0.8,0.2c-0.7,0.2-1.4,0.4-2.1,0.6c-0.1,0-0.3,0.1-0.4,0.1c-0.9,0.3-1.8,0.5-2.8,0.8
	c-0.6,0.2-1.2,0.4-1.9,0.5c-0.3,0.1-0.6,0.2-0.9,0.3c-0.6,0.2-1.3,0.4-1.9,0.5c-1,0.3-2,0.6-3.1,0.9c-0.4,0.1-0.8,0.2-1.2,0.4
	c-2.1,0.6-4.3,1.2-6.6,1.9c-0.6,0.2-1.2,0.3-1.8,0.5c-1.2,0.4-2.5,0.7-3.8,1.1c-0.6,0.2-1.2,0.4-1.9,0.5c-0.4,0.1-0.9,0.3-1.3,0.4
	c-1.3,0.4-2.6,0.7-3.9,1.1c-0.9,0.2-1.7,0.5-2.6,0.8c-0.7,0.2-1.3,0.4-2,0.6c-0.5,0.2-1.1,0.3-1.6,0.5c-1.7,0.5-3.5,1-5.3,1.5
	c-0.4,0.1-0.8,0.2-1.1,0.3c-1,0.3-1.9,0.6-2.9,0.8c-1.3,0.4-2.6,0.7-3.9,1.1c-0.8,0.2-1.6,0.5-2.4,0.7c-1,0.3-2,0.6-3,0.9
	c-1.3,0.4-2.7,0.8-4,1.2c-1.1,0.3-2.2,0.6-3.4,1c-0.5,0.1-1,0.3-1.5,0.4c-1.3,0.4-2.6,0.7-3.9,1.1c-1.5,0.4-3,0.9-4.6,1.3
	c-0.7,0.2-1.5,0.4-2.2,0.6c-1,0.3-2.1,0.6-3.1,0.9c-1.8,0.5-3.6,1-5.4,1.6c-0.5,0.1-0.9,0.3-1.4,0.4c-1.6,0.5-3.1,0.9-4.7,1.4
	c-1.4,0.4-2.8,0.8-4.2,1.2c-1,0.3-2,0.6-3,0.9c-1.1,0.3-2.2,0.6-3.3,1c-1.7,0.5-3.5,1-5.3,1.5c-1.1,0.3-2.1,0.6-3.2,0.9
	c-1,0.3-2,0.6-3,0.9c-2.4,0.7-4.9,1.4-7.3,2.1c-0.4,0.1-0.8,0.2-1.2,0.3c-1.4,0.4-2.8,0.8-4.2,1.2c-0.9,0.3-1.8,0.5-2.7,0.8
	c-2,0.6-4.1,1.2-6.2,1.8c-1.1,0.3-2.2,0.6-3.3,1c-1.1,0.3-2.2,0.6-3.3,1c-2.1,0.6-4.3,1.2-6.4,1.9c-0.9,0.3-1.7,0.5-2.6,0.8
	c-1.7,0.5-3.3,1-5,1.5c-0.9,0.3-1.8,0.5-2.8,0.8c-2.1,0.6-4.2,1.2-6.4,1.9c-1.2,0.4-2.4,0.7-3.6,1.1c-1.9,0.6-3.8,1.1-5.7,1.7
	c-0.9,0.3-1.9,0.6-2.8,0.8c-2.1,0.6-4.2,1.2-6.3,1.8c-0.8,0.2-1.5,0.4-2.3,0.7c-2.3,0.7-4.6,1.3-6.9,2v0c1,3,2,5.9,3,8.9
	C1205.5,27.8,1302.9,8.7,1332.3,3.7z"/>
<path class="st4" d="M1424.4,465.9c0.2-0.8,0.4-1.5,0.7-2.3c0.6-2.1,1.2-4.2,1.8-6.3c0.3-0.9,0.6-1.9,0.8-2.8
	c0.6-1.9,1.1-3.8,1.7-5.7c0.4-1.2,0.7-2.4,1.1-3.6c0.6-2.1,1.3-4.3,1.9-6.4c0.3-0.9,0.5-1.8,0.8-2.8c0.5-1.7,1-3.3,1.5-5
	c0.3-0.9,0.5-1.7,0.8-2.6c0.6-2.2,1.3-4.3,1.9-6.4c0.3-1.1,0.6-2.2,1-3.3c0.3-1.1,0.6-2.2,1-3.3c0.6-2.1,1.2-4.1,1.8-6.2
	c0.3-0.9,0.5-1.8,0.8-2.7c0.4-1.4,0.8-2.8,1.2-4.2c0.1-0.4,0.2-0.8,0.3-1.2c0.7-2.5,1.4-4.9,2.1-7.3c0.3-1,0.6-2,0.9-3
	c0.3-1.1,0.6-2.1,0.9-3.2c0.5-1.8,1-3.5,1.5-5.2c0.3-1.1,0.6-2.2,1-3.3c0.3-1,0.6-2,0.9-3c0.4-1.4,0.8-2.8,1.2-4.2
	c0.5-1.6,0.9-3.2,1.4-4.7c0.1-0.5,0.3-0.9,0.4-1.4c0.5-1.8,1.1-3.6,1.6-5.4c0.3-1.1,0.6-2.1,0.9-3.1c0.2-0.8,0.4-1.5,0.7-2.2
	c0.4-1.5,0.9-3,1.3-4.5c0.4-1.3,0.8-2.6,1.1-3.9c0.1-0.5,0.3-1,0.4-1.5c0.3-1.1,0.7-2.3,1-3.4c0.4-1.4,0.8-2.7,1.2-4
	c0.3-1,0.6-2,0.9-2.9c0.2-0.8,0.5-1.6,0.7-2.4c0.4-1.3,0.8-2.6,1.1-3.9c0.3-1,0.6-1.9,0.8-2.9c0.1-0.4,0.2-0.8,0.3-1.1
	c0.5-1.8,1-3.6,1.5-5.3c0.2-0.5,0.3-1.1,0.5-1.6c0.2-0.7,0.4-1.3,0.6-2c0.3-0.9,0.5-1.8,0.8-2.6c0.4-1.3,0.8-2.6,1.1-3.9
	c0.1-0.4,0.3-0.9,0.4-1.3c0.2-0.6,0.4-1.2,0.5-1.9c0.4-1.3,0.7-2.5,1.1-3.8c0.2-0.6,0.3-1.2,0.5-1.8c0.7-2.3,1.3-4.5,1.9-6.6
	c0.1-0.4,0.2-0.8,0.4-1.2c0.3-1.1,0.6-2.1,0.9-3.1c0.2-0.6,0.4-1.3,0.5-1.9c0.1-0.3,0.2-0.6,0.3-0.9c0.2-0.6,0.4-1.3,0.5-1.9
	c0.3-1,0.5-1.9,0.8-2.8c0-0.1,0.1-0.3,0.1-0.4c0.2-0.7,0.4-1.4,0.6-2.1c0.1-0.3,0.2-0.5,0.2-0.8c0.3-0.9,0.5-1.8,0.8-2.6
	c0.1-0.2,0.1-0.4,0.2-0.6c0.1-0.3,0.1-0.5,0.2-0.8c0.2-0.7,0.4-1.4,0.6-2c0.1-0.5,0.3-0.9,0.4-1.3c0.5-1.7,0.9-3.1,1.2-4.3
	c0.4-1.3,0.6-2.2,0.8-2.8c0.1-0.3,0.2-0.6,0.2-0.7c0-0.1,0-0.1,0-0.1c11.2-33.8,14.2-61.3,13.9-81.8c-0.9,42.4-79.7,248-93.9,284.7
	c6.3,2.3,12.6,4.5,19.1,6.6l0,0C1423,470.5,1423.7,468.2,1424.4,465.9z"/>
<g>
	<path class="st2" d="M1050,136.8L607.3,268.9L1053,143.6C1052,141.3,1051,139.1,1050,136.8z"/>
	<path class="st5" d="M1055.9,142.8l-5.9-5.9l0,0c1,2.3,2,4.5,3,6.7L1055.9,142.8z"/>
</g>
<path class="st2" d="M1422.3,472.8c-5.8-1.9-11.4-3.9-17-5.9c-15.6,130.4-270.2,844.5-299,925.1C549.7,1183.6,304,857.2,195.8,619.8
	c50.9-58.7,385.8-284.2,385.8-284.2c-78,26.3-349,240.8-390.4,273.8c-47.4-106.7-66.9-194.5-74.8-243.7
	c-20.9,9-168.2,79.4-84.8,237.1c0,0,122,254.6,372.3,493.8C642.2,1346,896,1467.2,896,1467.2c122.2,64.4,192-10,221.3-56.2l0,0
	c0.1-0.1,0.1-0.2,0.2-0.3c0.6-0.9,1.1-1.8,1.7-2.7c0.1-0.1,0.1-0.2,0.2-0.3c0.6-1,1.2-2,1.8-2.9c0.1-0.2,0.2-0.3,0.3-0.5
	c0.5-0.8,0.9-1.6,1.4-2.4c0.1-0.2,0.2-0.3,0.3-0.5c0.5-0.9,1-1.7,1.4-2.6c0,0,0,0,0,0c6.3-11.3,9.3-19,9.3-19
	C1201,1216.1,1341.4,748.2,1422.3,472.8z"/>
<path class="st2" d="M791,873.3c0,0-185,186.9-225.5,216.4l217.6-228.9L791,873.3z"/>
<polygon class="st2" points="1112.2,506.8 1215,367.6 1095.2,504.2 "/>
<polygon class="st2" points="1376.8,455.8 1221.1,834.6 1368.5,452.3 "/>
<path class="st3" d="M1035.1,75.7c0,0,38,151,157.3,261.1c0,0-100.6-72.5-166.5-258.5L1035.1,75.7z"/>
<path id="bottom_plate_1_" class="st6" d="M1124.6,1398.8C290.8,1094.2,142.1,526.2,116.4,365.7c-20.9,9-168.2,79.4-84.8,237.1
	c0,0,122,254.6,372.3,493.8C642.2,1346,896,1467.2,896,1467.2C1029.8,1537.8,1100.8,1441.8,1124.6,1398.8z"/>
<path class="st7" d="M937,1484.5"/>
<g>
	<path class="st4" d="M1358.1,447.7c-90.6,239.2-264.8,691.4-369,914.1l-0.2,0.5c-0.3,0.7-26.7,73.3-65.9,117.3
		c3.9,1.5,7.7,2.9,11.5,4.1c38.2-44.8,63-111.8,65-117.2c104.3-222.9,278.3-674.7,369-914.1C1365,450.8,1361.5,449.3,1358.1,447.7z"
		/>
	<path class="st4" d="M1211.5,354c-45.7,56-106.8,130-176.2,211.4c-138.1,162.1-338.1,387.9-506.7,543.1l-0.2,0.2
		c-0.1,0.1-11.7,11.5-60.2,51.8c2.8,2.6,5.6,5.3,8.3,7.9c46.6-38.6,58.6-50.3,59.8-51.5c237.4-218.4,538.5-577.6,683.7-755.5
		C1217.2,358.9,1214.3,356.5,1211.5,354z"/>
	<path class="st4" d="M554.5,278.3l2.8,6c198.8-61.4,393.5-118.6,492.6-147.5c-1.5-3.5-3.1-7-4.6-10.5
		C859,180.6,342.7,332.8,86.8,426.8C82,427.8,48.2,436.9,9,485c-1.4,7.1-2.3,14.5-2.6,22.3c12.7-17.7,27.6-34.8,44.7-48.4
		c22.4-17.7,38.2-21.1,38.3-21.1l0.4-0.1l0.4-0.2c116.5-42.8,287.1-97.6,456-149.9l-2.1-4.5L554.5,278.3z"/>
	<path class="st4" d="M581.6,335.6l-24.3-51.3l-2.8-6l-10.3,4.9l2.1,4.5l20.7,43.7c-39.4,25.4-318.5,205.5-370.3,257.1
		c-5.9,4.9-66.1,55.4-109.9,113.2c2.1,3.4,4.2,6.9,6.4,10.5c6.2-8.4,12.8-16.5,19.2-24.2c42-49.7,91.2-90.5,91.7-90.9l0.4-0.4
		c53.2-53.2,369.6-256.4,372.8-258.4L581.6,335.6z"/>
</g>
<ellipse transform="matrix(0.7071 -0.7071 0.7071 0.7071 12.1848 1078.5927)" class="st6" cx="1308.1" cy="524.6" rx="8.4" ry="8.4"/>
<ellipse transform="matrix(0.7071 -0.7071 0.7071 0.7071 -21.2627 1077.4502)" class="st6" cx="1290" cy="564.4" rx="8.4" ry="8.4"/>
<ellipse transform="matrix(0.7071 -0.7071 0.7071 0.7071 -54.3808 1079.5197)" class="st6" cx="1275.9" cy="605.4" rx="8.4" ry="8.4"/>
<ellipse transform="matrix(0.7071 -0.7071 0.7071 0.7071 -87.385 1079.7378)" class="st6" cx="1259.7" cy="645.4" rx="8.4" ry="8.4"/>
<ellipse transform="matrix(0.7071 -0.7071 0.7071 0.7071 -490.467 1126.0154)" class="st6" cx="1114" cy="1155.1" rx="8.4" ry="8.4"/>
<ellipse transform="matrix(0.7071 -0.7071 0.7071 0.7071 -523.7654 1126.1116)" class="st6" cx="1097.5" cy="1195.3" rx="8.4" ry="8.4"/>
<ellipse transform="matrix(0.7071 -0.7071 0.7071 0.7071 -559.5005 1125.1986)" class="st6" cx="1078.5" cy="1238" rx="8.4" ry="8.4"/>
<ellipse transform="matrix(0.7071 -0.7071 0.7071 0.7071 -610.4368 1124.0126)" class="st6" cx="1051.6" cy="1298.9" rx="8.4" ry="8.4"/>
<ellipse transform="matrix(0.7071 -0.7071 0.7071 0.7071 -642.1329 1126.0095)" class="st6" cx="1038.1" cy="1338.1" rx="8.4" ry="8.4"/>
<ellipse transform="matrix(0.7071 -0.7071 0.7071 0.7071 -556.6241 1084.7233)" class="st6" cx="1031.1" cy="1214.3" rx="8.4" ry="8.4"/>
<ellipse transform="matrix(0.7071 -0.7071 0.7071 0.7071 -608.6766 1086.2324)" class="st6" cx="1006.9" cy="1277.9" rx="8.4" ry="8.4"/>
<ellipse transform="matrix(0.7071 -0.7071 0.7071 0.7071 187.0331 779.6156)" class="st6" cx="1034.6" cy="164" rx="8.4" ry="8.4"/>
<ellipse transform="matrix(0.7071 -0.7071 0.7071 0.7071 168.8934 757.5045)" class="st6" cx="998.8" cy="174.9" rx="8.4" ry="8.4"/>
<ellipse transform="matrix(0.7071 -0.7071 0.7071 0.7071 148.0551 733.8071)" class="st6" cx="959.8" cy="188.2" rx="8.4" ry="8.4"/>
<ellipse transform="matrix(0.7071 -0.7071 0.7071 0.7071 -94.1848 465.3383)" class="st6" cx="514.6" cy="346.4" rx="8.4" ry="8.4"/>
<ellipse transform="matrix(0.7071 -0.7071 0.7071 0.7071 -120.065 445.32)" class="st6" cx="477.5" cy="367.6" rx="8.4" ry="8.4"/>
<ellipse transform="matrix(0.7071 -0.7071 0.7071 0.7071 -150.5692 305.4295)" class="st6" cx="293.4" cy="334.5" rx="8.4" ry="8.4"/>
<ellipse transform="matrix(0.7071 -0.7071 0.7071 0.7071 -176.8638 271.8515)" class="st6" cx="239.7" cy="349.4" rx="8.4" ry="8.4"/>
<ellipse transform="matrix(0.7071 -0.7071 0.7071 0.7071 -201.1995 243.4179)" class="st6" cx="193.2" cy="364.6" rx="8.4" ry="8.4"/>
<ellipse transform="matrix(0.7071 -0.7071 0.7071 0.7071 -404.5769 821.5996)" class="st6" cx="789.5" cy="899.2" rx="8.4" ry="8.4"/>
<ellipse transform="matrix(0.7071 -0.7071 0.7071 0.7071 -442.5774 809.3902)" class="st6" cx="755.7" cy="938.9" rx="8.4" ry="8.4"/>
<ellipse transform="matrix(0.7071 -0.7071 0.7071 0.7071 -528.1566 725.0674)" class="st6" cx="611.2" cy="1000.1" rx="8.4" ry="8.4"/>
<ellipse transform="matrix(0.7071 -0.7071 0.7071 0.7071 -563.4101 710.4648)" class="st6" cx="575.9" cy="1035.3" rx="8.4" ry="8.4"/>
<ellipse transform="matrix(0.7071 -0.7071 0.7071 0.7071 78.281 976.262)" class="st6" cx="1217.6" cy="393.6" rx="8.4" ry="8.4"/>
<ellipse transform="matrix(0.7071 -0.7071 0.7071 0.7071 51.284 967.4334)" class="st6" cx="1193.4" cy="421.8" rx="8.4" ry="8.4"/>
<ellipse transform="matrix(0.7071 -0.7071 0.7071 0.7071 -2.5241 954.3264)" class="st6" cx="1150.7" cy="480.2" rx="8.4" ry="8.4"/>
<ellipse transform="matrix(0.7071 -0.7071 0.7071 0.7071 -32.6791 947.666)" class="st6" cx="1127.6" cy="513.3" rx="8.4" ry="8.4"/>
<ellipse transform="matrix(0.7071 -0.7071 0.7071 0.7071 91.8969 940.8323)" class="st6" cx="1181.6" cy="359.5" rx="8.4" ry="8.4"/>
<ellipse transform="matrix(0.7071 -0.7071 0.7071 0.7071 -686.1944 1123.3699)" class="st4" cx="1012.9" cy="1390" rx="8.4" ry="8.4"/>
<ellipse transform="matrix(0.7071 -0.7071 0.7071 0.7071 -717.1461 1121.4078)" class="st4" cx="995.1" cy="1426.4" rx="8.4" ry="8.4"/>
<ellipse transform="matrix(0.7071 -0.7071 0.7071 0.7071 -643.8518 717.4264)" class="st4" cx="544.1" cy="1135.9" rx="8.4" ry="8.4"/>
<ellipse transform="matrix(0.7071 -0.7071 0.7071 0.7071 -408.4545 318.9207)" class="st4" cx="180.7" cy="652.5" rx="8.4" ry="8.4"/>
<ellipse transform="matrix(0.7071 -0.7071 0.7071 0.7071 -434.6193 308.0829)" class="st4" cx="154.6" cy="678.7" rx="8.4" ry="8.4"/>
<circle class="st4" cx="870" cy="619.5" r="260.3"/>
<circle cx="860" cy="609.6" r="243.1"/>
<path class="st4" d="M1099.9,508.2c-13.1-31-31.9-58.8-55.8-82.7c-23.9-23.9-51.7-42.7-82.7-55.8c-32.1-13.6-66.2-20.5-101.3-20.5
	c-35.1,0-69.2,6.9-101.3,20.5c-31,13.1-58.8,31.9-82.7,55.8c-23.9,23.9-42.7,51.7-55.8,82.7c-13.6,32.1-20.5,66.2-20.5,101.3
	c0,35.1,6.9,69.2,20.5,101.3c13.1,31,31.9,58.8,55.8,82.7c23.9,23.9,51.7,42.7,82.7,55.8c32.1,13.6,66.2,20.5,101.3,20.5
	c35.1,0,69.2-6.9,101.3-20.5c31-13.1,58.8-31.9,82.7-55.8c23.9-23.9,42.7-51.7,55.8-82.7c13.6-32.1,20.5-66.2,20.5-101.3
	C1120.4,574.4,1113.5,540.4,1099.9,508.2z M1066.2,696.7c-11.3,26.6-27.4,50.6-48,71.1c-18.9,18.9-40.6,34-64.6,45.1l1.1-22.7
	C959.5,759.9,958,672,958,672c52-31.2,62.4-66.7,62.4-66.7c5.3-11.3,6.1-22.2,5.2-31.4c-0.7-10.5-5.3-22.8-10.1-33
	c-2.9-7.8-7-15-11.6-21.3l0,0l0,0c-13.1-18.2-29.4-29.2-29.4-29.2c-7.6-45.9-30.7-63.8-30.7-63.8c-8-9.5-13.7-2.4-13.7-2.4
	c-1.4,3.3-11.3,16.5-11.3,16.5c-12.8,14.2-14.2,33.1-14.2,33.1c-53.4-8-78.9,10.4-78.9,10.4c0.5-11.8-10.4-22.2-10.4-22.2
	l-25.5-28.4c-12.3-9-16.1,3.8-16.1,3.8c-8,18-17.5,38.3-17.5,38.3c-9.5,18.9-7.6,27.9-7.6,27.9c0.5,20.3,8,29.8,8,29.8
	c-3.3,9-8.5,26-8.5,26c-6.6,18.4,1.9,34,1.9,34c6.1,23.6,44.4,56.7,44.4,56.7s-13,18.6-24.7,29.6c-1.1,0.9-2.1,1.9-3.2,2.9
	c0,0,0,0,0,0c-0.3,0.2-0.5,0.5-0.7,0.7c-25,22.9-55.7,59.8-70.2,77.8c-17.6-19-31.6-40.7-41.6-64.5c-11.7-27.6-17.6-56.9-17.6-87.1
	c0-30.2,5.9-59.5,17.6-87.1c11.3-26.6,27.4-50.6,48-71.1c20.6-20.6,44.5-36.7,71.1-48c27.6-11.7,56.9-17.6,87.1-17.6
	c30.2,0,59.5,5.9,87.1,17.6c26.6,11.3,50.6,27.4,71.1,48c20.6,20.6,36.7,44.5,48,71.1c11.7,27.6,17.6,56.9,17.6,87.1
	C1083.8,639.8,1077.8,669.1,1066.2,696.7z"/>
<g>
	<path class="st2" d="M951.3,557.9c0,0,9.5-7.3,0-11.2c0,0-9.3-2.7-18.3,2c0,0-2.6,2.7,0,5.4C933,554,938.4,562.8,951.3,557.9z"/>
	<path class="st2" d="M983,568.9c-2.2,0-3.9,1.7-3.9,3.9c0,0.2,0,0.4,0.1,0.7c-0.6,2.4-3.3,8.6-13.4,10.7l-0.3,0.1l-0.3,0.1
		c0,0-2.8,0.9-6.3,0.4c-4.9-0.8-9-4.1-12-9.8l-2.9-5.5c-0.7,1.9-3,7.8-4.9,11.3c-0.3,0.8-0.7,1.6-1.2,2.4c-2.7,4.2-7.7,6.4-14.8,6.7
		l-0.3,0c0,0-3.6,0.4-7.3-0.9c-4.1-1.4-6.6-4.3-7.5-8.8c0-0.2,0.1-0.5,0.1-0.7c0-2.2-1.7-3.9-3.9-3.9c-2.2,0-3.9,1.7-3.9,3.9
		c0,0.7,0.2,1.4,0.5,1.9c1.8,9.1,7.8,13,12.6,14.6c3.1,1,6.1,1.3,8.1,1.3c1,0,1.7-0.1,2.1-0.1c12.2-0.5,18-5.9,20.8-10.4
		c0.3-0.5,0.6-1.1,0.9-1.6c4.3,4.5,8.9,6.2,12.6,6.8c4.8,0.8,8.6-0.3,9.7-0.7c14.3-3,18-12.6,18.9-16.5c0.4-0.6,0.6-1.3,0.6-2
		C986.9,570.6,985.2,568.9,983,568.9z"/>
	
		<ellipse transform="matrix(0.8919 -0.4522 0.4522 0.8919 -133.1803 500.3999)" class="st2" cx="980.2" cy="528.8" rx="14.1" ry="23.3"/>
	
		<ellipse transform="matrix(0.6486 -0.7612 0.7612 0.6486 -92.2006 849.4713)" class="st2" cx="873.8" cy="524.6" rx="27.3" ry="19.3"/>
</g>
<path class="st6" d="M860,869.4c-35.1,0-69.1-6.9-101.2-20.4c-30.9-13.1-58.7-31.8-82.6-55.7c-23.9-23.9-42.6-51.6-55.7-82.6
	c-13.6-32-20.4-66.1-20.4-101.2c0-35.1,6.9-69.1,20.4-101.2c13.1-30.9,31.8-58.7,55.7-82.6c23.9-23.9,51.6-42.6,82.6-55.7
	c32-13.6,66.1-20.4,101.2-20.4c35.1,0,69.1,6.9,101.2,20.4c30.9,13.1,58.7,31.8,82.6,55.7c23.9,23.9,42.6,51.6,55.7,82.6
	c13.6,32,20.4,66.1,20.4,101.2c0,35.1-6.9,69.1-20.4,101.2c-13.1,30.9-31.8,58.7-55.7,82.6c-23.9,23.9-51.6,42.6-82.6,55.7
	C929.1,862.6,895.1,869.4,860,869.4z M860,386.3c-30.2,0-59.4,5.9-86.9,17.5c-26.6,11.2-50.5,27.4-71,47.9
	c-20.5,20.5-36.6,44.4-47.9,71c-11.6,27.5-17.5,56.8-17.5,86.9c0,30.2,5.9,59.4,17.5,86.9c11.2,26.6,27.4,50.5,47.9,71
	c20.5,20.5,44.4,36.6,71,47.9c27.5,11.6,56.8,17.5,86.9,17.5c30.2,0,59.4-5.9,86.9-17.5c26.6-11.2,50.5-27.4,71-47.9
	c20.5-20.5,36.6-44.4,47.9-71c11.6-27.5,17.5-56.8,17.5-86.9c0-30.2-5.9-59.4-17.5-86.9c-11.2-26.6-27.4-50.5-47.9-71
	c-20.5-20.5-44.4-36.6-71-47.9C919.4,392.2,890.2,386.3,860,386.3z"/>
<path class="st8" d="M931.9,359.4c-19.6-6.2-71.9-18.8-134.3-3.1c-45.4,8.9-93.2,30.4-131.7,75.9c0,0,0,0,0,0
	c0,0-96.1,103.3-58.6,245.7c0,0,0-0.1-0.1-0.4c2,9,4.6,18.1,7.7,27.4c0.1,0.2,0.1,0.4,0.2,0.6c0.1,0.3,0.2,0.6,0.3,0.9
	c0,0,0-0.1-0.1-0.3c10.8,32.9,30.2,64,62.9,87.6c-4.4-3.3-111.1-86.5-48.9-283.8c0,0,54.3-196.9,320.2-145.7
	C949.5,364,943,361.9,931.9,359.4z"/>
<path class="st9" d="M958,672c0,0-63.4,21.7-163.6-21.7l102.4,179.7c0,0,28.7-3.7,56.8-17.1C961,765.5,958,672,958,672z"/>
</svg>
